<svg height="512pt" viewBox="0 0 512 512" width="512pt" xmlns="http://www.w3.org/2000/svg"><path d="m142.511719 256.359375c0-62.582031 50.914062-113.5 113.488281-113.5 27.328125 0 53.71875 9.847656 74.316406 27.722656l9.804688-11.292969c-23.320313-20.238281-53.191406-31.382812-84.121094-31.382812-70.824219 0-128.441406 57.621094-128.441406 128.453125 0 51.507813 30.597656 97.875 77.949218 118.128906l5.882813-13.75c-41.839844-17.898437-68.878906-58.867187-68.878906-104.378906zm0 0"/><path d="m355.421875 175.035156-11.570313 9.476563c16.53125 20.191406 25.636719 45.707031 25.636719 71.847656 0 73.035156-68.453125 127.308594-139.5625 110.46875l-3.449219 14.554687c80.636719 19.09375 157.964844-42.480468 157.964844-125.023437 0-29.585937-10.304687-58.46875-29.019531-81.324219zm0 0"/><path d="m401.914062 317.128906 110.085938-60.335937-112.15625-61.464844 35.132812-120.347656-120.246093 35.105469-60.332031-110.085938-60.339844 110.097656-119.078125-34.761718 35.328125 121.003906-110.308594 60.453125 108.238281 59.320312-35.300781 120.90625 121.007812-35.328125 60.453126 110.308594 60.445312-110.296875 122.175781 35.667969zm-96.078124 73.6875c-32.875 12.226563-69.976563 12.101563-103.542969-1.507812l-19.371094-7.851563c-25.214844-14.597656-45.945313-36.988281-58.417969-64.289062l-3.320312-8.9375c-12.226563-32.871094-12.101563-69.976563 1.507812-103.539063l5.710938-14.089844c6.65625-12.59375 15.144531-24.089843 25.316406-34.265624 22.339844-22.339844 42.339844-29.324219 62.429688-37.738282 24.851562-7.214844 51.339843-7.492187 76.191406-.964844 23.40625 9.800782 41.914062 16.363282 63.898437 38.351563 19.339844 19.335937 26.621094 36.492187 33.605469 51.890625 11.277344 29.820312 12.140625 62.554688 2.894531 92.585938-7.582031 17.921874-14.714843 37.171874-36.222656 58.675781-10.628906 10.628906-22.703125 19.425781-35.957031 26.207031zm175.042968-134.023437-71.367187 39.117187c6.277343-25.710937 5.996093-53.058594-.957031-78.753906zm-67.90625-159.808594-22.808594 78.125c-13.738281-22.617187-33.277343-41.757813-56.363281-55.007813zm-158.574218-65.863281 39.113281 71.367187c-25.714844-6.277343-53.058594-5.996093-78.753907.957031zm-78.242188 89.332031c-23.039062 13.226563-42.597656 32.351563-56.363281 55.011719l-22.808594-78.125zm-74.484375 175.007813-70.550781-38.667969 71.492187-39.183594c-6.582031 24.632813-7.257812 51.652344-.941406 77.851563zm-6.730469 119.554687 22.847656-78.261719c12.765626 22.074219 31.390626 41.652344 54.382813 55.714844zm159.457032 65.863281-39.183594-71.492187c24.632812 6.582031 51.652344 7.257812 77.847656.941406zm137.769531-143.773437 22.847656 78.261719-77.230469-22.542969c21.65625-13.246094 40.835938-32.292969 54.382813-55.71875zm0 0"/><path d="m278.074219 263.476562h-14.957031v-14.957031h14.957031zm-24.925781 0h-14.957032v-14.957031h14.957032zm0 0"/></svg>